<?xml version="1.0" encoding="UTF-8"?>
<svg id="Ebene_2" data-name="Ebene 2" xmlns="http://www.w3.org/2000/svg" viewBox="0 0 14.25 11.25">
  <defs>
    <style>
      .cls-1 {
        fill: #5c5f67;
      }
    </style>
  </defs>
  <g id="Ebene_3" data-name="Ebene 3">
    <g>
      <path class="cls-1" d="M13,11.25H1.25c-.69,0-1.25-.56-1.25-1.25V1.25C0,.56.56,0,1.25,0h11.74c.69,0,1.25.56,1.25,1.25v8.74c0,.69-.56,1.25-1.25,1.25ZM13,1.25H1.25v8.75h11.75V1.25Z"/>
      <path class="cls-1" d="M10.14,6c-1.03,0-1.88-.84-1.88-1.88s.84-1.88,1.88-1.88,1.88.84,1.88,1.88-.84,1.88-1.88,1.88ZM10.14,3.5c-.34,0-.62.28-.62.62s.28.62.62.62.62-.28.62-.62-.28-.62-.62-.62Z"/>
      <path class="cls-1" d="M6.69,3.5h-3.83c-.35,0-.62-.28-.62-.62s.28-.62.62-.62h3.83c.35,0,.62.28.62.62s-.28.62-.62.62Z"/>
      <path class="cls-1" d="M5.9,6h-3.05c-.35,0-.62-.28-.62-.62s.28-.62.62-.62h3.05c.35,0,.62.28.62.62s-.28.62-.62.62Z"/>
      <path class="cls-1" d="M11.58,8.5H2.8c-.35,0-.62-.28-.62-.62s.28-.62.62-.62h8.79c.35,0,.62.28.62.62s-.28.62-.62.62Z"/>
    </g>
  </g>
</svg>