<?xml version="1.0" encoding="UTF-8"?>
<svg id="Ebene_2" data-name="Ebene 2" xmlns="http://www.w3.org/2000/svg" viewBox="0 0 14.25 11.25">
  <defs>
    <style>
      .cls-1 {
        fill: #00f0c2;
      }
    </style>
  </defs>
  <g id="Ebene_3" data-name="Ebene 3">
    <g>
      <path class="cls-1" d="M12.12,11.25H2.12c-1.17,0-2.12-.95-2.12-2.12V2.12C0,.95.95,0,2.12,0h10c1.17,0,2.12.95,2.12,2.12v7c0,1.17-.95,2.12-2.12,2.12ZM2.12,1.25c-.48,0-.88.39-.88.88v7c0,.48.39.88.88.88h10c.48,0,.88-.39.88-.88V2.12c0-.48-.39-.88-.88-.88H2.12Z"/>
      <path class="cls-1" d="M10.14,6c-1.03,0-1.88-.84-1.88-1.88s.84-1.88,1.88-1.88,1.88.84,1.88,1.88-.84,1.88-1.88,1.88ZM10.14,3.5c-.34,0-.62.28-.62.62s.28.62.62.62.62-.28.62-.62-.28-.62-.62-.62Z"/>
      <path class="cls-1" d="M6.69,3.5h-3.83c-.35,0-.62-.28-.62-.62s.28-.62.62-.62h3.83c.35,0,.62.28.62.62s-.28.62-.62.62Z"/>
      <path class="cls-1" d="M5.9,6h-3.05c-.35,0-.62-.28-.62-.62s.28-.62.62-.62h3.05c.35,0,.62.28.62.62s-.28.62-.62.62Z"/>
      <path class="cls-1" d="M11.58,8.5H2.8c-.35,0-.62-.28-.62-.62s.28-.62.62-.62h8.79c.35,0,.62.28.62.62s-.28.62-.62.62Z"/>
    </g>
  </g>
</svg>