<svg xmlns="http://www.w3.org/2000/svg" viewBox="0 0 1994 1458">
  <path transform="translate(0,1162) scale(1,-1)" d="M1852 1156Q1858 1162 1866 1162Q1886 1162 1900 1135Q1911 1115 1929 968Q1940 875 1940 836Q1940 790 1923 707Q1912 652 1900.5 621.0Q1889 590 1872.5 566.0Q1856 542 1824.5 530.5Q1793 519 1753.5 512.0Q1714 505 1644 500Q1510 490 1442 457Q1413 443 1397.0 433.5Q1381 424 1366.0 406.0Q1351 388 1345.0 371.0Q1339 354 1333.5 317.5Q1328 281 1326.0 243.5Q1324 206 1322 138Q1317 -39 1300.5 -110.5Q1284 -182 1235 -227Q1199 -260 1153.0 -272.0Q1107 -284 989 -291Q960 -293 919 -293Q879 -293 855.5 -286.5Q832 -280 793 -259Q721 -219 702 -188Q656 -120 639 161Q634 250 626.5 280.5Q619 311 596 334Q573 359 551.5 365.0Q530 371 469 371H375V212Q374 8 343.0 -88.5Q312 -185 226 -253Q170 -296 127 -296Q99 -296 99 -274Q99 -264 108.0 -254.5Q117 -245 131 -240Q170 -225 212.0 -171.0Q254 -117 262 -73Q264 -57 284 48Q293 85 293 119Q293 130 291.0 140.0Q289 150 289 169Q289 219 296 272L307 378L260 422Q211 466 211 505Q211 527 232.0 527.0Q253 527 273 498Q286 480 335.0 463.5Q384 447 422 447Q437 447 446 450Q454 453 467 453Q507 453 571.5 435.5Q636 418 657 401Q693 370 714.5 302.5Q736 235 736 154Q737 32 752.0 -58.0Q767 -148 790 -171Q836 -218 994 -234Q1018 -236 1027 -236Q1068 -236 1116 -210Q1175 -177 1194.0 -137.5Q1213 -98 1221 9Q1228 103 1234.0 161.5Q1240 220 1247.0 274.5Q1254 329 1264.0 360.0Q1274 391 1286.0 418.0Q1298 445 1318.0 462.0Q1338 479 1359.5 492.5Q1381 506 1415 521Q1492 555 1525 555Q1539 555 1552.5 563.5Q1566 572 1573 585Q1589 614 1589 666Q1589 699 1581 707Q1571 717 1483 728Q1404 737 1367.5 744.0Q1331 751 1317.0 760.0Q1303 769 1303 785Q1303 798 1306.0 803.0Q1309 808 1320 808Q1329 808 1357 803Q1437 792 1489 788Q1513 786 1523 786Q1613 786 1613 852Q1613 861 1612 866Q1610 888 1601.0 895.5Q1592 903 1566 905Q1521 910 1442.5 927.5Q1364 945 1343 955Q1318 968 1318 990Q1318 1006 1331 1006Q1339 1006 1350 1002Q1390 988 1491 988Q1557 988 1583 996Q1602 1003 1608.5 1018.0Q1615 1033 1618 1075Q1623 1150 1650 1150Q1670 1150 1686 1102Q1695 1072 1695 923Q1695 668 1679 625Q1678 622 1678 616Q1678 597 1692 585Q1700 577 1718 577Q1748 577 1783.0 599.0Q1818 621 1828 649Q1842 680 1844 917Q1844 1144 1852 1156ZM368 1109Q417 1134 487 1134Q558 1134 609 1108Q648 1088 692.0 1040.0Q736 992 736 970Q736 950 765.5 933.0Q795 916 840 911Q900 902 904 878Q905 875 905 871Q905 860 893.0 856.5Q881 853 847 853Q791 853 765.0 834.0Q739 815 681 731Q650 685 639.0 663.5Q628 642 628 620Q628 612 632 586Q635 568 635 555Q635 527 624 527Q610 527 586 572Q569 606 569 647Q569 713 606 764Q647 821 647 888Q647 978 573 1037Q525 1076 494 1076Q482 1076 467 1073Q446 1068 418.0 1052.5Q390 1037 372 1019Q341 991 333.0 971.0Q325 951 325 904Q326 830 368 747Q409 666 409 621Q409 588 388 558Q365 526 345 526Q326 526 326 551Q326 570 342 596Q348 606 348 621Q348 680 246 789Q207 831 187.5 842.0Q168 853 130 853Q58 853 58 876Q58 888 84.0 898.5Q110 909 154 912Q209 915 221.0 923.0Q233 931 247 970Q264 1020 291.5 1051.5Q319 1083 368 1109ZM443 915Q452 937 469 937Q494 937 517 901Q533 876 533 856Q533 824 495 824Q475 824 457.5 848.0Q440 872 440 898Q440 908 443 915ZM1085 347Q1096 368 1109.5 383.5Q1123 399 1131 399Q1147 399 1147 374Q1147 363 1142 326Q1132 226 1126 87Q1121 -28 1115.0 -56.5Q1109 -85 1084 -107Q1046 -139 986 -139Q915 -139 884.5 -92.5Q854 -46 841 86Q836 134 836 152Q836 187 854 187Q877 187 896.5 150.5Q916 114 935 31Q955 -62 980 -66Q981 -66 983.5 -66.5Q986 -67 987 -67Q1012 -67 1025.0 -21.5Q1038 24 1047 140Q1058 290 1085 347ZM480 276Q500 300 514 300Q548 300 548 141Q548 93 545 28Q535 -167 515 -183Q502 -193 495 -193Q476 -193 469 -107Q461 2 461 90Q461 254 480 276Z"/>
</svg>
